{"asset":{"generator":"Khronos glTF Blender I/O v1.1.46","version":"2.0"},"scene":0,"scenes":[{"name":"Scene","nodes":[0,1,2,3,4,5,6,7,8]}],"nodes":[{"name":"Light","rotation":[0.16907575726509094,0.7558803558349609,-0.27217137813568115,0.570947527885437],"translation":[0.03800606727600098,9.256282806396484,9.670215606689453]},{"name":"Camera","rotation":[0.483536034822464,0.33687159419059753,-0.20870360732078552,0.7804827094078064],"translation":[7.358891487121582,12.006599426269531,6.925790786743164]},{"mesh":0,"name":"Shape_IndexedFaceSet","rotation":[0,0.7071067094802856,-0.7071068286895752,5.338507236274381e-8],"scale":[3.5,3.5,3.5],"translation":[0,4.415289878845215,0]},{"mesh":1,"name":"Shape_IndexedFaceSet.001","rotation":[0,0.7071067094802856,-0.7071068286895752,5.338507236274381e-8],"scale":[2.5299999713897705,2.5299999713897705,2.5299999713897705],"translation":[8.109999656677246,9.681289672851562,0]},{"mesh":2,"name":"Shape_IndexedFaceSet.002","rotation":[0,0.7071067094802856,-0.7071068286895752,5.338507236274381e-8],"scale":[2.5299999713897705,2.5299999713897705,2.5299999713897705],"translation":[-8.109999656677246,9.681289672851562,0]},{"mesh":3,"name":"Shape_IndexedFaceSet.003","rotation":[0.33742091059684753,-0.6214073896408081,-0.6214073300361633,0.3374209403991699],"scale":[1,1,4.829999923706055],"translation":[-2.0274999141693115,5.731789588928223,0]},{"mesh":4,"name":"Shape_IndexedFaceSet.004","rotation":[0.6214073300361633,0.3374209403991699,0.3374209702014923,0.6214073896408081],"scale":[1,1,4.8299994468688965],"translation":[-6.082500457763672,8.364789962768555,0]},{"mesh":5,"name":"Shape_IndexedFaceSet.005","rotation":[0.33742091059684753,0.6214072704315186,0.6214074492454529,0.3374209702014923],"scale":[1,1,4.829999923706055],"translation":[2.0274999141693115,5.731789588928223,0]},{"mesh":6,"name":"Shape_IndexedFaceSet.006","rotation":[0.6214073300361633,-0.3374210000038147,-0.3374209403991699,0.6214073896408081],"scale":[1,1,4.8299994468688965],"translation":[6.082500457763672,8.364789962768555,0]}],"materials":[{"doubleSided":true,"emissiveFactor":[0,0,0],"name":"Oxygen","pbrMetallicRoughness":{"baseColorFactor":[0.8000000715255737,0,0.0007611862965859473,1],"metallicFactor":0,"roughnessFactor":0.5}},{"doubleSided":true,"emissiveFactor":[0,0,0],"name":"Hydrogen","pbrMetallicRoughness":{"baseColorFactor":[1,1,1,1],"metallicFactor":0,"roughnessFactor":0.5}}],"meshes":[{"name":"Shape_IndexedFaceSet","primitives":[{"attributes":{"POSITION":0,"NORMAL":1,"TEXCOORD_0":2},"indices":3,"material":0}]},{"name":"Shape_IndexedFaceSet.001","primitives":[{"attributes":{"POSITION":4,"NORMAL":5,"TEXCOORD_0":6},"indices":3,"material":1}]},{"name":"Shape_IndexedFaceSet.002","primitives":[{"attributes":{"POSITION":7,"NORMAL":8,"TEXCOORD_0":9},"indices":3,"material":1}]},{"name":"Shape_IndexedFaceSet.003","primitives":[{"attributes":{"POSITION":10,"NORMAL":11,"TEXCOORD_0":12},"indices":13,"material":0}]},{"name":"Shape_IndexedFaceSet.004","primitives":[{"attributes":{"POSITION":14,"NORMAL":15,"TEXCOORD_0":16},"indices":13,"material":1}]},{"name":"Shape_IndexedFaceSet.005","primitives":[{"attributes":{"POSITION":17,"NORMAL":18,"TEXCOORD_0":19},"indices":13,"material":0}]},{"name":"Shape_IndexedFaceSet.006","primitives":[{"attributes":{"POSITION":20,"NORMAL":21,"TEXCOORD_0":22},"indices":13,"material":1}]}],"accessors":[{"bufferView":0,"componentType":5126,"count":182,"max":[1,1,1],"min":[-1,-1,-1],"type":"VEC3"},{"bufferView":1,"componentType":5126,"count":182,"type":"VEC3"},{"bufferView":2,"componentType":5126,"count":182,"type":"VEC2"},{"bufferView":3,"componentType":5123,"count":960,"type":"SCALAR"},{"bufferView":4,"componentType":5126,"count":182,"max":[1,1,1],"min":[-1,-1,-1],"type":"VEC3"},{"bufferView":5,"componentType":5126,"count":182,"type":"VEC3"},{"bufferView":6,"componentType":5126,"count":182,"type":"VEC2"},{"bufferView":7,"componentType":5126,"count":182,"max":[1,1,1],"min":[-1,-1,-1],"type":"VEC3"},{"bufferView":8,"componentType":5126,"count":182,"type":"VEC3"},{"bufferView":9,"componentType":5126,"count":182,"type":"VEC2"},{"bufferView":10,"componentType":5126,"count":288,"max":[1,1,0.5],"min":[-1,-1,-0.5],"type":"VEC3"},{"bufferView":11,"componentType":5126,"count":288,"type":"VEC3"},{"bufferView":12,"componentType":5126,"count":288,"type":"VEC2"},{"bufferView":13,"componentType":5123,"count":432,"type":"SCALAR"},{"bufferView":14,"componentType":5126,"count":288,"max":[1,1,0.5],"min":[-1,-1,-0.5],"type":"VEC3"},{"bufferView":15,"componentType":5126,"count":288,"type":"VEC3"},{"bufferView":16,"componentType":5126,"count":288,"type":"VEC2"},{"bufferView":17,"componentType":5126,"count":288,"max":[1,1,0.5],"min":[-1,-1,-0.5],"type":"VEC3"},{"bufferView":18,"componentType":5126,"count":288,"type":"VEC3"},{"bufferView":19,"componentType":5126,"count":288,"type":"VEC2"},{"bufferView":20,"componentType":5126,"count":288,"max":[1,1,0.5],"min":[-1,-1,-0.5],"type":"VEC3"},{"bufferView":21,"componentType":5126,"count":288,"type":"VEC3"},{"bufferView":22,"componentType":5126,"count":288,"type":"VEC2"}],"bufferViews":[{"buffer":0,"byteLength":2184,"byteOffset":0},{"buffer":0,"byteLength":2184,"byteOffset":2184},{"buffer":0,"byteLength":1456,"byteOffset":4368},{"buffer":0,"byteLength":1920,"byteOffset":5824},{"buffer":0,"byteLength":2184,"byteOffset":7744},{"buffer":0,"byteLength":2184,"byteOffset":9928},{"buffer":0,"byteLength":1456,"byteOffset":12112},{"buffer":0,"byteLength":2184,"byteOffset":13568},{"buffer":0,"byteLength":2184,"byteOffset":15752},{"buffer":0,"byteLength":1456,"byteOffset":17936},{"buffer":0,"byteLength":3456,"byteOffset":19392},{"buffer":0,"byteLength":3456,"byteOffset":22848},{"buffer":0,"byteLength":2304,"byteOffset":26304},{"buffer":0,"byteLength":864,"byteOffset":28608},{"buffer":0,"byteLength":3456,"byteOffset":29472},{"buffer":0,"byteLength":3456,"byteOffset":32928},{"buffer":0,"byteLength":2304,"byteOffset":36384},{"buffer":0,"byteLength":3456,"byteOffset":38688},{"buffer":0,"byteLength":3456,"byteOffset":42144},{"buffer":0,"byteLength":2304,"byteOffset":45600},{"buffer":0,"byteLength":3456,"byteOffset":47904},{"buffer":0,"byteLength":3456,"byteOffset":51360},{"buffer":0,"byteLength":2304,"byteOffset":54816}],"buffers":[{"byteLength":57120,"uri":"data:application/octet-stream;base64,"}]}